<?xml version="1.0" encoding="utf-8"?>
<!-- Generator: Adobe Illustrator 16.0.0, SVG Export Plug-In . SVG Version: 6.00 Build 0)  -->
<!DOCTYPE svg PUBLIC "-//W3C//DTD SVG 1.1//EN" "http://www.w3.org/Graphics/SVG/1.1/DTD/svg11.dtd">
<svg version="1.1"
	 id="svg10273" sodipodi:docname="baggage.svg" inkscape:version="0.48.2 r9819" xmlns:sodipodi="http://sodipodi.sourceforge.net/DTD/sodipodi-0.dtd" xmlns:rdf="http://www.w3.org/1999/02/22-rdf-syntax-ns#" xmlns:dc="http://purl.org/dc/elements/1.1/" xmlns:cc="http://creativecommons.org/ns#" xmlns:inkscape="http://www.inkscape.org/namespaces/inkscape" xmlns:svg="http://www.w3.org/2000/svg"
	 xmlns="http://www.w3.org/2000/svg" xmlns:xlink="http://www.w3.org/1999/xlink" x="0px" y="0px" width="100.026px"
	 height="79.47px" viewBox="0.036 9.702 100.026 79.47" enable-background="new 0.036 9.702 100.026 79.47" xml:space="preserve">
<polygon fill="none" points="54.885,26.317 61.174,26.357 61.188,23.534 54.9,23.495 "/>
<polygon fill="none" points="13.819,79.463 17.142,84.803 26.31,78.573 22.987,73.232 "/>
<polygon fill="none" points="96.157,35.708 94.199,35.703 94.18,39.838 96.14,39.843 "/>
<path fill="none" d="M14.373,47.87l-3.384,2.606l0.677,0.954c0.872-1.18,2.013-2.137,3.322-2.797L14.373,47.87z"/>
<polygon points="83.903,62.3 83.903,51.43 51.23,51.43 51.23,62.3 64.891,62.3 64.891,59.819 69.506,59.819 69.506,62.3 "/>
<polygon points="37.699,68.038 37.747,65.213 37.57,65.215 37.57,68.039 "/>
<path d="M37.57,62.3h11.26V51.43h-5.969c-2.933,0-5.292,2.437-5.292,5.467V62.3z"/>
<polygon points="37.771,63.825 37.57,63.825 37.57,64.438 37.76,64.437 "/>
<path d="M37.773,63.825l-0.107,6.339h-0.002l0.022-1.323l-0.115,0.001v13.354c0,3.031,2.359,5.468,5.292,5.468h6.03l-0.062-23.838
	H37.773z"/>
<path d="M97.649,69.611h-0.003l-0.113-5.786H86.488l0.061,23.838h6.093c2.933,0,5.292-2.437,5.292-5.468V68.46l-0.307-0.002
	L97.649,69.611z"/>
<polygon points="97.611,67.76 97.934,67.763 97.934,65.3 97.564,65.297 "/>
<polygon points="97.934,64.626 97.934,63.825 97.536,63.825 97.551,64.623 "/>
<path d="M69.566,63.825v2.86c1.37,0.562,2.339,1.559,2.339,2.734c0,1.775-2.091,3.178-4.677,3.178s-4.677-1.402-4.677-3.178
	c0-1.212,0.961-2.249,2.4-2.798v-2.797H51.23l0.062,23.838h32.674l-0.062-23.838H69.566z"/>
<path d="M97.934,56.896c0-3.03-2.359-5.467-5.292-5.467h-6.153V62.3h11.445V56.896z"/>
<path d="M100.023,65.581c-0.01-0.511-0.419-0.942-1.048-0.948l-1.042-0.007V65.3l1.109,0.009l0.047,2.463l-1.156-0.009v0.697
	l1.117,0.009c0.629,0.005,1.021-0.413,1.012-0.925L100.023,65.581z"/>
<polygon points="97.611,67.76 97.564,65.297 97.934,65.3 97.934,64.626 97.551,64.623 97.536,63.825 97.533,63.825 97.646,69.611 
	97.649,69.611 97.627,68.458 97.934,68.46 97.934,67.763 "/>
<path d="M36.221,68.052l0.048-2.826l1.301-0.011v-0.776l-1.233,0.012c-0.629,0.005-1.039,0.502-1.048,1.088l-0.038,2.253
	c-0.01,0.587,0.382,1.068,1.011,1.062l1.309-0.012v-0.803L36.221,68.052z"/>
<polygon points="37.663,70.164 37.666,70.164 37.773,63.825 37.771,63.825 37.76,64.437 37.57,64.438 37.57,65.215 37.747,65.213 
	37.699,68.038 37.57,68.039 37.57,68.842 37.685,68.841 "/>
<path stroke="#FFFFFF" stroke-width="0.0526" d="M29.694,51.111c0.1-1.052,0.659-2.74,1.477-4.577l8.737-19.77
	c1.253-2.815,2.736-4.803,3.323-4.513l3.077-6.865c0.649-1.459,0.273-3.098-0.861-3.687l-3.384-1.78
	c-0.284-0.147-0.557-0.196-0.861-0.191c-0.913,0.016-1.851,0.686-2.338,1.78l-3.015,6.738c0.468,0.468-0.089,2.891-1.292,5.594
	l-8.799,19.77c-0.849,1.906-1.753,3.423-2.461,4.132c0.005,0.042-0.007,0.085,0,0.127c-2.548-0.61-5.041-0.47-7.2,0.318
	l-0.738-1.018c-0.404-0.555-1.265-0.415-1.969,0.127l-2.708,2.034c-0.706,0.542-1.019,1.352-0.616,1.908l0.923,1.271
	c-0.11,0.205-0.211,0.419-0.308,0.636c-0.861,1.936-1.039,4.059-0.616,6.166c0.184,0.361,0.2,0.823,0,1.271
	c-0.13,0.293-0.326,0.557-0.554,0.699c-0.037,0.008-0.085,0.057-0.123,0.063c-0.158,0.077-0.328,0.072-0.492,0.063
	c-3.508,0.836-6.418,3.018-7.876,6.293c-2.938,6.599,1.115,15.236,8.984,19.325c7.868,4.088,16.63,2.085,19.567-4.513
	c1.413-3.175,1.21-6.845-0.246-10.234c-0.163-0.178-0.265-0.433-0.308-0.7c-0.015-0.027-0.049-0.036-0.062-0.062
	c-0.033-0.317,0.036-0.685,0.185-1.018c0.167-0.374,0.451-0.662,0.739-0.827c-0.001-0.014,0.001-0.05,0-0.062
	c1.811-0.957,3.252-2.434,4.122-4.387C36.062,60.594,34.144,54.843,29.694,51.111z M11.666,51.43l-0.677-0.954l3.384-2.606
	l0.615,0.763C13.678,49.292,12.538,50.25,11.666,51.43z M17.142,84.803l-3.323-5.34l9.168-6.23l3.323,5.341L17.142,84.803z"/>
<path d="M40.6,29.681c0,0.042-0.082,16.037-0.082,16.037c-0.012,2.233,1.709,3.528,3.485,3.54l4.773,0.03l0.118-23.047l-4.773-0.03
	C42.304,26.198,40.609,27.692,40.6,29.681z"/>
<path d="M65.902,26.387l-2.944-0.018l0.014-2.721c0.006-1.203-1.066-1.974-2.374-1.981c0,0-5.026-0.031-5.011-0.031
	c-1.306-0.008-2.407,0.749-2.413,1.952l-0.014,2.72l-2.901-0.018l-0.117,23.046l15.644,0.098L65.902,26.387z M61.174,26.357
	l-6.289-0.04l0.016-2.823l6.287,0.04L61.174,26.357z"/>
<path d="M75.4,45.936c0,0,0.082-15.994,0.082-16.037c0.011-1.988-1.666-3.504-3.485-3.515l-4.773-0.03l-0.117,23.047l4.773,0.03
	C73.659,49.443,75.39,48.169,75.4,45.936z"/>
<path d="M94.258,28.623c0.006-1.195-1.033-2.307-2.413-2.311c-0.03,0-11.13-0.028-11.13-0.028c-1.549-0.004-2.444,1.13-2.45,2.298
	l-0.014,3.14l15.993,0.041L94.258,28.623z"/>
<path d="M94.175,41.012l1.889,0.005c0.834,0.002,1.368-0.705,1.371-1.564c0,0,0.015-3.306,0.015-3.296
	c0.004-0.858-0.523-1.582-1.357-1.583l-1.888-0.005l0.009-1.908L78.22,32.619l-0.046,10.289l15.992,0.041L94.175,41.012z
	 M94.199,35.703l1.958,0.005l-0.018,4.135l-1.96-0.005L94.199,35.703z"/>
<path d="M94.177,46.957l0.015-3.14l-15.993-0.04l-0.015,3.14c-0.005,1.17,0.881,2.306,2.431,2.31c0,0,11.099,0.029,11.128,0.029
	C93.122,49.259,94.171,48.153,94.177,46.957z"/>
</svg>
